  0
SECTION
  2
BLOCKS
  0
ENDSEC
  0
SECTION
  2
ENTITIES
  0
LINE
  8
0
 10
-23.4
 20
-57.9
 11
23.4
 21
-57.9
  0
LINE
  8
0
 10
23.4
 20
-57.9
 11
23.4
 21
-55.9
  0
LINE
  8
0
 10
23.4
 20
-55.9
 11
-23.4
 21
-55.9
  0
LINE
  8
0
 10
-23.4
 20
-55.9
 11
-23.4
 21
-57.9
  0
LINE
  8
0
 10
-23.4
 20
49.9
 11
-13.5
 21
49.9
  0
LINE
  8
0
 10
-13.5
 20
49.9
 11
-13.5
 21
51.9
  0
LINE
  8
0
 10
-13.5
 20
51.9
 11
-23.4
 21
51.9
  0
LINE
  8
0
 10
-23.4
 20
51.9
 11
-23.4
 21
49.9
  0
LINE
  8
0
 10
-21.1
 20
-53
 11
-19.5
 21
-53
  0
LINE
  8
0
 10
-19.5
 20
-53
 11
-19.5
 21
47
  0
LINE
  8
0
 10
-19.5
 20
47
 11
-21.1
 21
47
  0
LINE
  8
0
 10
-21.1
 20
47
 11
-21.1
 21
-53
  0
LINE
  8
0
 10
-19.5
 20
37.5
 11
-15.5
 21
37.5
  0
LINE
  8
0
 10
-15.5
 20
37.5
 11
-15.5
 21
38.75
  0
LINE
  8
0
 10
-15.5
 20
38.75
 11
-15
 21
38.75
  0
LINE
  8
0
 10
-15
 20
38.75
 11
-15
 21
40.2613
  0
LINE
  8
0
 10
-15
 20
40.2613
 11
-14.5648
 21
38.0736
  0
LINE
  8
0
 10
-14.5648
 20
38.0736
 11
-12.9072
 21
35.5928
  0
LINE
  8
0
 10
-12.9072
 20
35.5928
 11
-10.4264
 21
33.9352
  0
LINE
  8
0
 10
-10.4264
 20
33.9352
 11
-9.73183
 21
33.797
  0
LINE
  8
0
 10
-9.73183
 20
33.797
 11
-9.73183
 21
48.203
  0
LINE
  8
0
 10
-9.73183
 20
48.203
 11
-10.4264
 21
48.0648
  0
LINE
  8
0
 10
-10.4264
 20
48.0648
 11
-12.9072
 21
46.4072
  0
LINE
  8
0
 10
-12.9072
 20
46.4072
 11
-14.5648
 21
43.9264
  0
LINE
  8
0
 10
-14.5648
 20
43.9264
 11
-15
 21
41.7387
  0
LINE
  8
0
 10
-15
 20
41.7387
 11
-15
 21
42.25
  0
LINE
  8
0
 10
-15
 20
42.25
 11
-15.5
 21
42.25
  0
LINE
  8
0
 10
-15.5
 20
42.25
 11
-15.5
 21
43.5
  0
LINE
  8
0
 10
-15.5
 20
43.5
 11
-19.5
 21
43.5
  0
LINE
  8
0
 10
-19.5
 20
43.5
 11
-19.5
 21
37.5
  0
LINE
  8
0
 10
-9.5
 20
38
 11
-6.5
 21
38
  0
LINE
  8
0
 10
-6.5
 20
38
 11
-6.5
 21
58
  0
LINE
  8
0
 10
-6.5
 20
58
 11
-9.5
 21
58
  0
LINE
  8
0
 10
-9.5
 20
58
 11
-9.5
 21
38
  0
LINE
  8
0
 10
-6.26817
 20
33.5981
 11
-4.57365
 21
33.9352
  0
LINE
  8
0
 10
-4.57365
 20
33.9352
 11
-2.0928
 21
35.5928
  0
LINE
  8
0
 10
-2.0928
 20
35.5928
 11
-0.435155
 21
38.0736
  0
LINE
  8
0
 10
-0.435155
 20
38.0736
 11
0.146934
 21
41
  0
LINE
  8
0
 10
0.146934
 20
41
 11
-0.435155
 21
43.9264
  0
LINE
  8
0
 10
-0.435155
 20
43.9264
 11
-2.0928
 21
46.4072
  0
LINE
  8
0
 10
-2.0928
 20
46.4072
 11
-4.57365
 21
48.0648
  0
LINE
  8
0
 10
-4.57365
 20
48.0648
 11
-6.26817
 21
48.4019
  0
LINE
  8
0
 10
-6.26817
 20
48.4019
 11
-6.26817
 21
38.1322
  0
LINE
  8
0
 10
-6.26817
 20
38.1322
 11
-6.20353
 21
38.2035
  0
LINE
  8
0
 10
-6.20353
 20
38.2035
 11
-6.07977
 21
38.3157
  0
LINE
  8
0
 10
-6.07977
 20
38.3157
 11
-5.94561
 21
38.4152
  0
LINE
  8
0
 10
-5.94561
 20
38.4152
 11
-5.80234
 21
38.5011
  0
LINE
  8
0
 10
-5.80234
 20
38.5011
 11
-5.65135
 21
38.5725
  0
LINE
  8
0
 10
-5.65135
 20
38.5725
 11
-5.49408
 21
38.6288
  0
LINE
  8
0
 10
-5.49408
 20
38.6288
 11
-5.33205
 21
38.6693
  0
LINE
  8
0
 10
-5.33205
 20
38.6693
 11
-5.16683
 21
38.6939
  0
LINE
  8
0
 10
-5.16683
 20
38.6939
 11
-5
 21
38.7021
  0
LINE
  8
0
 10
-5
 20
38.7021
 11
-4.83317
 21
38.6939
  0
LINE
  8
0
 10
-4.83317
 20
38.6939
 11
-4.66795
 21
38.6693
  0
LINE
  8
0
 10
-4.66795
 20
38.6693
 11
-4.50592
 21
38.6288
  0
LINE
  8
0
 10
-4.50592
 20
38.6288
 11
-4.34865
 21
38.5725
  0
LINE
  8
0
 10
-4.34865
 20
38.5725
 11
-4.19766
 21
38.5011
  0
LINE
  8
0
 10
-4.19766
 20
38.5011
 11
-4.05439
 21
38.4152
  0
LINE
  8
0
 10
-4.05439
 20
38.4152
 11
-3.92023
 21
38.3157
  0
LINE
  8
0
 10
-3.92023
 20
38.3157
 11
-3.79647
 21
38.2035
  0
LINE
  8
0
 10
-3.79647
 20
38.2035
 11
-3.6843
 21
38.0798
  0
LINE
  8
0
 10
-3.6843
 20
38.0798
 11
-3.5848
 21
37.9456
  0
LINE
  8
0
 10
-3.5848
 20
37.9456
 11
-3.49893
 21
37.8023
  0
LINE
  8
0
 10
-3.49893
 20
37.8023
 11
-3.42751
 21
37.6513
  0
LINE
  8
0
 10
-3.42751
 20
37.6513
 11
-3.37124
 21
37.4941
  0
LINE
  8
0
 10
-3.37124
 20
37.4941
 11
-3.33066
 21
37.3321
  0
LINE
  8
0
 10
-3.33066
 20
37.3321
 11
-3.30615
 21
37.1668
  0
LINE
  8
0
 10
-3.30615
 20
37.1668
 11
-3.29795
 21
37
  0
LINE
  8
0
 10
-3.29795
 20
37
 11
-3.30615
 21
36.8332
  0
LINE
  8
0
 10
-3.30615
 20
36.8332
 11
-3.33066
 21
36.6679
  0
LINE
  8
0
 10
-3.33066
 20
36.6679
 11
-3.37124
 21
36.5059
  0
LINE
  8
0
 10
-3.37124
 20
36.5059
 11
-3.42751
 21
36.3487
  0
LINE
  8
0
 10
-3.42751
 20
36.3487
 11
-3.49893
 21
36.1977
  0
LINE
  8
0
 10
-3.49893
 20
36.1977
 11
-3.5848
 21
36.0544
  0
LINE
  8
0
 10
-3.5848
 20
36.0544
 11
-3.6843
 21
35.9202
  0
LINE
  8
0
 10
-3.6843
 20
35.9202
 11
-3.79647
 21
35.7965
  0
LINE
  8
0
 10
-3.79647
 20
35.7965
 11
-3.92023
 21
35.6843
  0
LINE
  8
0
 10
-3.92023
 20
35.6843
 11
-4.05439
 21
35.5848
  0
LINE
  8
0
 10
-4.05439
 20
35.5848
 11
-4.19766
 21
35.4989
  0
LINE
  8
0
 10
-4.19766
 20
35.4989
 11
-4.34865
 21
35.4275
  0
LINE
  8
0
 10
-4.34865
 20
35.4275
 11
-4.50592
 21
35.3712
  0
LINE
  8
0
 10
-4.50592
 20
35.3712
 11
-4.66795
 21
35.3307
  0
LINE
  8
0
 10
-4.66795
 20
35.3307
 11
-4.83317
 21
35.3061
  0
LINE
  8
0
 10
-4.83317
 20
35.3061
 11
-5
 21
35.298
  0
LINE
  8
0
 10
-5
 20
35.298
 11
-5.16683
 21
35.3061
  0
LINE
  8
0
 10
-5.16683
 20
35.3061
 11
-5.33205
 21
35.3307
  0
LINE
  8
0
 10
-5.33205
 20
35.3307
 11
-5.49408
 21
35.3712
  0
LINE
  8
0
 10
-5.49408
 20
35.3712
 11
-5.65135
 21
35.4275
  0
LINE
  8
0
 10
-5.65135
 20
35.4275
 11
-5.80234
 21
35.4989
  0
LINE
  8
0
 10
-5.80234
 20
35.4989
 11
-5.94561
 21
35.5848
  0
LINE
  8
0
 10
-5.94561
 20
35.5848
 11
-6.07977
 21
35.6843
  0
LINE
  8
0
 10
-6.07977
 20
35.6843
 11
-6.20353
 21
35.7965
  0
LINE
  8
0
 10
-6.20353
 20
35.7965
 11
-6.26817
 21
35.8678
  0
LINE
  8
0
 10
-6.26817
 20
35.8678
 11
-6.26817
 21
33.5981
  0
LINE
  8
0
 10
-5.5
 20
49.9
 11
23.4
 21
49.9
  0
LINE
  8
0
 10
23.4
 20
49.9
 11
23.4
 21
51.9
  0
LINE
  8
0
 10
23.4
 20
51.9
 11
-5.5
 21
51.9
  0
LINE
  8
0
 10
-5.5
 20
51.9
 11
-5.5
 21
49.9
  0
ENDSEC
  0
SECTION
  2
OBJECTS
  0
DICTIONARY
  0
ENDSEC
  0
EOF
