  0
SECTION
  2
BLOCKS
  0
ENDSEC
  0
SECTION
  2
ENTITIES
  0
LINE
  8
0
 10
77.4
 20
-28.6286
 11
77.4
 21
28.6286
  0
LINE
  8
0
 10
77.4
 20
28.6286
 11
72.5625
 21
33.4
  0
LINE
  8
0
 10
72.5625
 20
33.4
 11
-72.5625
 21
33.4
  0
LINE
  8
0
 10
-72.5625
 20
33.4
 11
-77.4
 21
28.6286
  0
LINE
  8
0
 10
-77.4
 20
28.6286
 11
-77.4
 21
-28.6286
  0
LINE
  8
0
 10
-77.4
 20
-28.6286
 11
-72.5625
 21
-33.4
  0
LINE
  8
0
 10
-72.5625
 20
-33.4
 11
72.5625
 21
-33.4
  0
LINE
  8
0
 10
72.5625
 20
-33.4
 11
77.4
 21
-28.6286
  0
LINE
  8
0
 10
-29.8
 20
-9.84001
 11
-29.8
 21
-6
  0
LINE
  8
0
 10
-29.8
 20
-6
 11
-27.92
 21
-6
  0
LINE
  8
0
 10
-27.92
 20
-6
 11
-27.92
 21
-9.84001
  0
LINE
  8
0
 10
-27.92
 20
-9.84001
 11
-29.8
 21
-9.84001
  0
LINE
  8
0
 10
-27.26
 20
-9.84001
 11
-27.26
 21
-6
  0
LINE
  8
0
 10
-27.26
 20
-6
 11
-25.38
 21
-6
  0
LINE
  8
0
 10
-25.38
 20
-6
 11
-25.38
 21
-9.84001
  0
LINE
  8
0
 10
-25.38
 20
-9.84001
 11
-27.26
 21
-9.84001
  0
LINE
  8
0
 10
-17.1
 20
-10.56
 11
-17.1
 21
-6
  0
LINE
  8
0
 10
-17.1
 20
-6
 11
-15.22
 21
-6
  0
LINE
  8
0
 10
-15.22
 20
-6
 11
-15.22
 21
-10.1
  0
LINE
  8
0
 10
-15.22
 20
-10.1
 11
-15.45
 21
-10.1
  0
LINE
  8
0
 10
-15.45
 20
-10.1
 11
-15.5427
 21
-10.1147
  0
LINE
  8
0
 10
-15.5427
 20
-10.1147
 11
-15.6263
 21
-10.1573
  0
LINE
  8
0
 10
-15.6263
 20
-10.1573
 11
-15.6927
 21
-10.2237
  0
LINE
  8
0
 10
-15.6927
 20
-10.2237
 11
-15.7353
 21
-10.3073
  0
LINE
  8
0
 10
-15.7353
 20
-10.3073
 11
-15.75
 21
-10.4
  0
LINE
  8
0
 10
-15.75
 20
-10.4
 11
-15.75
 21
-10.56
  0
LINE
  8
0
 10
-15.75
 20
-10.56
 11
-17.1
 21
-10.56
  0
LINE
  8
0
 10
-14.56
 20
-10.1
 11
-14.56
 21
-6
  0
LINE
  8
0
 10
-14.56
 20
-6
 11
-12.68
 21
-6
  0
LINE
  8
0
 10
-12.68
 20
-6
 11
-12.68
 21
-10.1
  0
LINE
  8
0
 10
-12.68
 20
-10.1
 11
-14.56
 21
-10.1
  0
LINE
  8
0
 10
-12.02
 20
-10.1
 11
-12.02
 21
-6
  0
LINE
  8
0
 10
-12.02
 20
-6
 11
-10.14
 21
-6
  0
LINE
  8
0
 10
-10.14
 20
-6
 11
-10.14
 21
-10.1
  0
LINE
  8
0
 10
-10.14
 20
-10.1
 11
-12.02
 21
-10.1
  0
LINE
  8
0
 10
-4.39999
 20
-10.56
 11
-4.39999
 21
-6
  0
LINE
  8
0
 10
-4.39999
 20
-6
 11
-2.51999
 21
-6
  0
LINE
  8
0
 10
-2.51999
 20
-6
 11
-2.51999
 21
-10.56
  0
LINE
  8
0
 10
-2.51999
 20
-10.56
 11
-4.39999
 21
-10.56
  0
LINE
  8
0
 10
-1.86
 20
-10.1
 11
-1.86
 21
-6
  0
LINE
  8
0
 10
-1.86
 20
-6
 11
0.019989
 21
-6
  0
LINE
  8
0
 10
0.019989
 20
-6
 11
0.019989
 21
-10.1
  0
LINE
  8
0
 10
0.019989
 20
-10.1
 11
-1.86
 21
-10.1
  0
LINE
  8
0
 10
0.679993
 20
-10.1
 11
0.679993
 21
-6
  0
LINE
  8
0
 10
0.679993
 20
-6
 11
2.56
 21
-6
  0
LINE
  8
0
 10
2.56
 20
-6
 11
2.56
 21
-10.1
  0
LINE
  8
0
 10
2.56
 20
-10.1
 11
0.679993
 21
-10.1
  0
LINE
  8
0
 10
5.75999
 20
-10.56
 11
5.75999
 21
-6
  0
LINE
  8
0
 10
5.75999
 20
-6
 11
7.64
 21
-6
  0
LINE
  8
0
 10
7.64
 20
-6
 11
7.64
 21
-7.5
  0
LINE
  8
0
 10
7.64
 20
-7.5
 11
6.5
 21
-7.5
  0
LINE
  8
0
 10
6.5
 20
-7.5
 11
6.5
 21
-10.56
  0
LINE
  8
0
 10
6.5
 20
-10.56
 11
5.75999
 21
-10.56
  0
LINE
  8
0
 10
8.29999
 20
-7.5
 11
8.29999
 21
-6
  0
LINE
  8
0
 10
8.29999
 20
-6
 11
10.18
 21
-6
  0
LINE
  8
0
 10
10.18
 20
-6
 11
10.18
 21
-7.5
  0
LINE
  8
0
 10
10.18
 20
-7.5
 11
8.29999
 21
-7.5
  0
LINE
  8
0
 10
10.84
 20
-10.56
 11
10.84
 21
-6
  0
LINE
  8
0
 10
10.84
 20
-6
 11
12.72
 21
-6
  0
LINE
  8
0
 10
12.72
 20
-6
 11
12.72
 21
-7.09999
  0
LINE
  8
0
 10
12.72
 20
-7.09999
 11
12
 21
-7.09999
  0
LINE
  8
0
 10
12
 20
-7.09999
 11
12
 21
-10.56
  0
LINE
  8
0
 10
12
 20
-10.56
 11
10.84
 21
-10.56
  0
LINE
  8
0
 10
13.38
 20
-7.09999
 11
13.38
 21
-6
  0
LINE
  8
0
 10
13.38
 20
-6
 11
15.26
 21
-6
  0
LINE
  8
0
 10
15.26
 20
-6
 11
15.26
 21
-7.09999
  0
LINE
  8
0
 10
15.26
 20
-7.09999
 11
13.38
 21
-7.09999
  0
LINE
  8
0
 10
15.92
 20
-7.09999
 11
15.92
 21
-6
  0
LINE
  8
0
 10
15.92
 20
-6
 11
17.8
 21
-6
  0
LINE
  8
0
 10
17.8
 20
-6
 11
17.8
 21
-7.09999
  0
LINE
  8
0
 10
17.8
 20
-7.09999
 11
15.92
 21
-7.09999
  0
LINE
  8
0
 10
4.25
 20
-10.56
 11
4.25
 21
-10.4
  0
LINE
  8
0
 10
4.25
 20
-10.4
 11
4.23532
 21
-10.3073
  0
LINE
  8
0
 10
4.23532
 20
-10.3073
 11
4.1927
 21
-10.2237
  0
LINE
  8
0
 10
4.1927
 20
-10.2237
 11
4.12633
 21
-10.1573
  0
LINE
  8
0
 10
4.12633
 20
-10.1573
 11
4.04271
 21
-10.1147
  0
LINE
  8
0
 10
4.04271
 20
-10.1147
 11
3.95
 21
-10.1
  0
LINE
  8
0
 10
3.95
 20
-10.1
 11
3.21999
 21
-10.1
  0
LINE
  8
0
 10
3.21999
 20
-10.1
 11
3.21999
 21
-6
  0
LINE
  8
0
 10
3.21999
 20
-6
 11
5.09999
 21
-6
  0
LINE
  8
0
 10
5.09999
 20
-6
 11
5.09999
 21
-10.56
  0
LINE
  8
0
 10
5.09999
 20
-10.56
 11
4.25
 21
-10.56
  0
LINE
  8
0
 10
-6.93999
 20
-10.56
 11
-6.93999
 21
-6
  0
LINE
  8
0
 10
-6.93999
 20
-6
 11
-5.06
 21
-6
  0
LINE
  8
0
 10
-5.06
 20
-6
 11
-5.06
 21
-10.56
  0
LINE
  8
0
 10
-5.06
 20
-10.56
 11
-6.93999
 21
-10.56
  0
LINE
  8
0
 10
-9.25
 20
-10.56
 11
-9.25
 21
-10.4
  0
LINE
  8
0
 10
-9.25
 20
-10.4
 11
-9.26468
 21
-10.3073
  0
LINE
  8
0
 10
-9.26468
 20
-10.3073
 11
-9.3073
 21
-10.2237
  0
LINE
  8
0
 10
-9.3073
 20
-10.2237
 11
-9.37367
 21
-10.1573
  0
LINE
  8
0
 10
-9.37367
 20
-10.1573
 11
-9.45729
 21
-10.1147
  0
LINE
  8
0
 10
-9.45729
 20
-10.1147
 11
-9.48
 21
-10.1111
  0
LINE
  8
0
 10
-9.48
 20
-10.1111
 11
-9.48
 21
-6
  0
LINE
  8
0
 10
-9.48
 20
-6
 11
-7.59999
 21
-6
  0
LINE
  8
0
 10
-7.59999
 20
-6
 11
-7.59999
 21
-10.56
  0
LINE
  8
0
 10
-7.59999
 20
-10.56
 11
-9.25
 21
-10.56
  0
LINE
  8
0
 10
-19.64
 20
-10.56
 11
-19.64
 21
-6
  0
LINE
  8
0
 10
-19.64
 20
-6
 11
-17.76
 21
-6
  0
LINE
  8
0
 10
-17.76
 20
-6
 11
-17.76
 21
-10.56
  0
LINE
  8
0
 10
-17.76
 20
-10.56
 11
-19.64
 21
-10.56
  0
LINE
  8
0
 10
-23.0458
 20
-10.3058
 11
-23.2958
 21
-10.0558
  0
LINE
  8
0
 10
-23.2958
 20
-10.0558
 11
-23.6108
 21
-9.89532
  0
LINE
  8
0
 10
-23.6108
 20
-9.89532
 11
-23.96
 21
-9.84001
  0
LINE
  8
0
 10
-23.96
 20
-9.84001
 11
-24.72
 21
-9.84001
  0
LINE
  8
0
 10
-24.72
 20
-9.84001
 11
-24.72
 21
-6
  0
LINE
  8
0
 10
-24.72
 20
-6
 11
-22.84
 21
-6
  0
LINE
  8
0
 10
-22.84
 20
-6
 11
-22.84
 21
-10.56
  0
LINE
  8
0
 10
-22.84
 20
-10.56
 11
-22.9163
 21
-10.56
  0
LINE
  8
0
 10
-22.9163
 20
-10.56
 11
-23.0458
 21
-10.3058
  0
LINE
  8
0
 10
19.4039
 20
-12.5
 11
19.4039
 21
-10.56
  0
LINE
  8
0
 10
19.4039
 20
-10.56
 11
19
 21
-10.56
  0
LINE
  8
0
 10
19
 20
-10.56
 11
19
 21
-7.09999
  0
LINE
  8
0
 10
19
 20
-7.09999
 11
18.46
 21
-7.09999
  0
LINE
  8
0
 10
18.46
 20
-7.09999
 11
18.46
 21
-6
  0
LINE
  8
0
 10
18.46
 20
-6
 11
24.6
 21
-6
  0
LINE
  8
0
 10
24.6
 20
-6
 11
24.6
 21
-12.5
  0
LINE
  8
0
 10
24.6
 20
-12.5
 11
19.4039
 21
-12.5
  0
LINE
  8
0
 10
-40.6
 20
-18
 11
-40.6
 21
-6
  0
LINE
  8
0
 10
-40.6
 20
-6
 11
-30.46
 21
-6
  0
LINE
  8
0
 10
-30.46
 20
-6
 11
-30.46
 21
-9.84001
  0
LINE
  8
0
 10
-30.46
 20
-9.84001
 11
-30.64
 21
-9.84001
  0
LINE
  8
0
 10
-30.64
 20
-9.84001
 11
-30.9892
 21
-9.89532
  0
LINE
  8
0
 10
-30.9892
 20
-9.89532
 11
-31.3042
 21
-10.0558
  0
LINE
  8
0
 10
-31.3042
 20
-10.0558
 11
-31.5542
 21
-10.3058
  0
LINE
  8
0
 10
-31.5542
 20
-10.3058
 11
-31.7147
 21
-10.6208
  0
LINE
  8
0
 10
-31.7147
 20
-10.6208
 11
-31.77
 21
-10.97
  0
LINE
  8
0
 10
-31.77
 20
-10.97
 11
-31.77
 21
-11.97
  0
LINE
  8
0
 10
-31.77
 20
-11.97
 11
-31.7147
 21
-12.3192
  0
LINE
  8
0
 10
-31.7147
 20
-12.3192
 11
-31.5542
 21
-12.6342
  0
LINE
  8
0
 10
-31.5542
 20
-12.6342
 11
-31.4039
 21
-12.7844
  0
LINE
  8
0
 10
-31.4039
 20
-12.7844
 11
-31.4039
 21
-13.1
  0
LINE
  8
0
 10
-31.4039
 20
-13.1
 11
-32
 21
-13.1
  0
LINE
  8
0
 10
-32
 20
-13.1
 11
-32
 21
-13
  0
LINE
  8
0
 10
-32
 20
-13
 11
-33
 21
-13
  0
LINE
  8
0
 10
-33
 20
-13
 11
-33
 21
-7.5
  0
LINE
  8
0
 10
-33
 20
-7.5
 11
-37
 21
-7.5
  0
LINE
  8
0
 10
-37
 20
-7.5
 11
-37
 21
-8.59999
  0
LINE
  8
0
 10
-37
 20
-8.59999
 11
-36
 21
-8.59999
  0
LINE
  8
0
 10
-36
 20
-8.59999
 11
-36
 21
-13
  0
LINE
  8
0
 10
-36
 20
-13
 11
-38
 21
-13
  0
LINE
  8
0
 10
-38
 20
-13
 11
-38
 21
-13.1
  0
LINE
  8
0
 10
-38
 20
-13.1
 11
-38.5
 21
-13.1
  0
LINE
  8
0
 10
-38.5
 20
-13.1
 11
-38.5
 21
-14.5
  0
LINE
  8
0
 10
-38.5
 20
-14.5
 11
-38
 21
-14.5
  0
LINE
  8
0
 10
-38
 20
-14.5
 11
-38
 21
-14.6
  0
LINE
  8
0
 10
-38
 20
-14.6
 11
-36.5
 21
-14.6
  0
LINE
  8
0
 10
-36.5
 20
-14.6
 11
-36.5
 21
-15.78
  0
LINE
  8
0
 10
-36.5
 20
-15.78
 11
-30.46
 21
-15.78
  0
LINE
  8
0
 10
-30.46
 20
-15.78
 11
-30.46
 21
-15.97
  0
LINE
  8
0
 10
-30.46
 20
-15.97
 11
-30.295
 21
-16.3
  0
LINE
  8
0
 10
-30.295
 20
-16.3
 11
-29.965
 21
-16.3
  0
LINE
  8
0
 10
-29.965
 20
-16.3
 11
-29.8
 21
-15.97
  0
LINE
  8
0
 10
-29.8
 20
-15.97
 11
-29.8
 21
-15.78
  0
LINE
  8
0
 10
-29.8
 20
-15.78
 11
-27.92
 21
-15.78
  0
LINE
  8
0
 10
-27.92
 20
-15.78
 11
-27.92
 21
-15.97
  0
LINE
  8
0
 10
-27.92
 20
-15.97
 11
-27.755
 21
-16.3
  0
LINE
  8
0
 10
-27.755
 20
-16.3
 11
-27.425
 21
-16.3
  0
LINE
  8
0
 10
-27.425
 20
-16.3
 11
-27.26
 21
-15.97
  0
LINE
  8
0
 10
-27.26
 20
-15.97
 11
-27.26
 21
-15.78
  0
LINE
  8
0
 10
-27.26
 20
-15.78
 11
-25.38
 21
-15.78
  0
LINE
  8
0
 10
-25.38
 20
-15.78
 11
-25.38
 21
-15.97
  0
LINE
  8
0
 10
-25.38
 20
-15.97
 11
-25.215
 21
-16.3
  0
LINE
  8
0
 10
-25.215
 20
-16.3
 11
-24.885
 21
-16.3
  0
LINE
  8
0
 10
-24.885
 20
-16.3
 11
-24.72
 21
-15.97
  0
LINE
  8
0
 10
-24.72
 20
-15.97
 11
-24.72
 21
-14.6
  0
LINE
  8
0
 10
-24.72
 20
-14.6
 11
-24.05
 21
-14.6
  0
LINE
  8
0
 10
-24.05
 20
-14.6
 11
-24.05
 21
-14.5
  0
LINE
  8
0
 10
-24.05
 20
-14.5
 11
-23.51
 21
-14.5
  0
LINE
  8
0
 10
-23.51
 20
-14.5
 11
-23.51
 21
-14.6
  0
LINE
  8
0
 10
-23.51
 20
-14.6
 11
-22.84
 21
-14.6
  0
LINE
  8
0
 10
-22.84
 20
-14.6
 11
-22.84
 21
-15.97
  0
LINE
  8
0
 10
-22.84
 20
-15.97
 11
-22.675
 21
-16.3
  0
LINE
  8
0
 10
-22.675
 20
-16.3
 11
-22.345
 21
-16.3
  0
LINE
  8
0
 10
-22.345
 20
-16.3
 11
-22.18
 21
-15.97
  0
LINE
  8
0
 10
-22.18
 20
-15.97
 11
-22.18
 21
-14.6
  0
LINE
  8
0
 10
-22.18
 20
-14.6
 11
-21.51
 21
-14.6
  0
LINE
  8
0
 10
-21.51
 20
-14.6
 11
-21.51
 21
-14.5
  0
LINE
  8
0
 10
-21.51
 20
-14.5
 11
-20.97
 21
-14.5
  0
LINE
  8
0
 10
-20.97
 20
-14.5
 11
-20.97
 21
-14.6
  0
LINE
  8
0
 10
-20.97
 20
-14.6
 11
-20.3
 21
-14.6
  0
LINE
  8
0
 10
-20.3
 20
-14.6
 11
-20.3
 21
-15.97
  0
LINE
  8
0
 10
-20.3
 20
-15.97
 11
-20.135
 21
-16.3
  0
LINE
  8
0
 10
-20.135
 20
-16.3
 11
-19.805
 21
-16.3
  0
LINE
  8
0
 10
-19.805
 20
-16.3
 11
-19.64
 21
-15.97
  0
LINE
  8
0
 10
-19.64
 20
-15.97
 11
-19.64
 21
-14.6
  0
LINE
  8
0
 10
-19.64
 20
-14.6
 11
-18.97
 21
-14.6
  0
LINE
  8
0
 10
-18.97
 20
-14.6
 11
-18.97
 21
-14.5
  0
LINE
  8
0
 10
-18.97
 20
-14.5
 11
-18.43
 21
-14.5
  0
LINE
  8
0
 10
-18.43
 20
-14.5
 11
-18.43
 21
-14.6
  0
LINE
  8
0
 10
-18.43
 20
-14.6
 11
-17.76
 21
-14.6
  0
LINE
  8
0
 10
-17.76
 20
-14.6
 11
-17.76
 21
-15.97
  0
LINE
  8
0
 10
-17.76
 20
-15.97
 11
-17.595
 21
-16.3
  0
LINE
  8
0
 10
-17.595
 20
-16.3
 11
-17.265
 21
-16.3
  0
LINE
  8
0
 10
-17.265
 20
-16.3
 11
-17.1
 21
-15.97
  0
LINE
  8
0
 10
-17.1
 20
-15.97
 11
-17.1
 21
-14.6
  0
LINE
  8
0
 10
-17.1
 20
-14.6
 11
-16.43
 21
-14.6
  0
LINE
  8
0
 10
-16.43
 20
-14.6
 11
-16.43
 21
-14.5
  0
LINE
  8
0
 10
-16.43
 20
-14.5
 11
-15.89
 21
-14.5
  0
LINE
  8
0
 10
-15.89
 20
-14.5
 11
-15.89
 21
-14.6
  0
LINE
  8
0
 10
-15.89
 20
-14.6
 11
-15.22
 21
-14.6
  0
LINE
  8
0
 10
-15.22
 20
-14.6
 11
-15.22
 21
-15.97
  0
LINE
  8
0
 10
-15.22
 20
-15.97
 11
-15.055
 21
-16.3
  0
LINE
  8
0
 10
-15.055
 20
-16.3
 11
-14.725
 21
-16.3
  0
LINE
  8
0
 10
-14.725
 20
-16.3
 11
-14.56
 21
-15.97
  0
LINE
  8
0
 10
-14.56
 20
-15.97
 11
-14.56
 21
-14.6
  0
LINE
  8
0
 10
-14.56
 20
-14.6
 11
-13.89
 21
-14.6
  0
LINE
  8
0
 10
-13.89
 20
-14.6
 11
-13.89
 21
-14.5
  0
LINE
  8
0
 10
-13.89
 20
-14.5
 11
-13.35
 21
-14.5
  0
LINE
  8
0
 10
-13.35
 20
-14.5
 11
-13.35
 21
-14.6
  0
LINE
  8
0
 10
-13.35
 20
-14.6
 11
-12.68
 21
-14.6
  0
LINE
  8
0
 10
-12.68
 20
-14.6
 11
-12.68
 21
-15.97
  0
LINE
  8
0
 10
-12.68
 20
-15.97
 11
-12.515
 21
-16.3
  0
LINE
  8
0
 10
-12.515
 20
-16.3
 11
-12.185
 21
-16.3
  0
LINE
  8
0
 10
-12.185
 20
-16.3
 11
-12.02
 21
-15.97
  0
LINE
  8
0
 10
-12.02
 20
-15.97
 11
-12.02
 21
-14.6
  0
LINE
  8
0
 10
-12.02
 20
-14.6
 11
-11.35
 21
-14.6
  0
LINE
  8
0
 10
-11.35
 20
-14.6
 11
-11.35
 21
-14.5
  0
LINE
  8
0
 10
-11.35
 20
-14.5
 11
-10.81
 21
-14.5
  0
LINE
  8
0
 10
-10.81
 20
-14.5
 11
-10.81
 21
-14.6
  0
LINE
  8
0
 10
-10.81
 20
-14.6
 11
-10.14
 21
-14.6
  0
LINE
  8
0
 10
-10.14
 20
-14.6
 11
-10.14
 21
-15.97
  0
LINE
  8
0
 10
-10.14
 20
-15.97
 11
-9.97499
 21
-16.3
  0
LINE
  8
0
 10
-9.97499
 20
-16.3
 11
-9.64499
 21
-16.3
  0
LINE
  8
0
 10
-9.64499
 20
-16.3
 11
-9.48
 21
-15.97
  0
LINE
  8
0
 10
-9.48
 20
-15.97
 11
-9.48
 21
-14.6
  0
LINE
  8
0
 10
-9.48
 20
-14.6
 11
-8.81
 21
-14.6
  0
LINE
  8
0
 10
-8.81
 20
-14.6
 11
-8.81
 21
-14.5
  0
LINE
  8
0
 10
-8.81
 20
-14.5
 11
-8.26999
 21
-14.5
  0
LINE
  8
0
 10
-8.26999
 20
-14.5
 11
-8.26999
 21
-14.6
  0
LINE
  8
0
 10
-8.26999
 20
-14.6
 11
-7.59999
 21
-14.6
  0
LINE
  8
0
 10
-7.59999
 20
-14.6
 11
-7.59999
 21
-15.97
  0
LINE
  8
0
 10
-7.59999
 20
-15.97
 11
-7.435
 21
-16.3
  0
LINE
  8
0
 10
-7.435
 20
-16.3
 11
-7.105
 21
-16.3
  0
LINE
  8
0
 10
-7.105
 20
-16.3
 11
-6.93999
 21
-15.97
  0
LINE
  8
0
 10
-6.93999
 20
-15.97
 11
-6.93999
 21
-14.6
  0
LINE
  8
0
 10
-6.93999
 20
-14.6
 11
-6.26999
 21
-14.6
  0
LINE
  8
0
 10
-6.26999
 20
-14.6
 11
-6.26999
 21
-14.5
  0
LINE
  8
0
 10
-6.26999
 20
-14.5
 11
-5.73
 21
-14.5
  0
LINE
  8
0
 10
-5.73
 20
-14.5
 11
-5.73
 21
-14.6
  0
LINE
  8
0
 10
-5.73
 20
-14.6
 11
-5.06
 21
-14.6
  0
LINE
  8
0
 10
-5.06
 20
-14.6
 11
-5.06
 21
-15.97
  0
LINE
  8
0
 10
-5.06
 20
-15.97
 11
-4.89499
 21
-16.3
  0
LINE
  8
0
 10
-4.89499
 20
-16.3
 11
-4.56499
 21
-16.3
  0
LINE
  8
0
 10
-4.56499
 20
-16.3
 11
-4.39999
 21
-15.97
  0
LINE
  8
0
 10
-4.39999
 20
-15.97
 11
-4.39999
 21
-14.6
  0
LINE
  8
0
 10
-4.39999
 20
-14.6
 11
-3.73
 21
-14.6
  0
LINE
  8
0
 10
-3.73
 20
-14.6
 11
-3.73
 21
-14.5
  0
LINE
  8
0
 10
-3.73
 20
-14.5
 11
-3.18999
 21
-14.5
  0
LINE
  8
0
 10
-3.18999
 20
-14.5
 11
-3.18999
 21
-14.6
  0
LINE
  8
0
 10
-3.18999
 20
-14.6
 11
-2.51999
 21
-14.6
  0
LINE
  8
0
 10
-2.51999
 20
-14.6
 11
-2.51999
 21
-15.97
  0
LINE
  8
0
 10
-2.51999
 20
-15.97
 11
-2.355
 21
-16.3
  0
LINE
  8
0
 10
-2.355
 20
-16.3
 11
-2.02499
 21
-16.3
  0
LINE
  8
0
 10
-2.02499
 20
-16.3
 11
-1.86
 21
-15.97
  0
LINE
  8
0
 10
-1.86
 20
-15.97
 11
-1.86
 21
-14.6
  0
LINE
  8
0
 10
-1.86
 20
-14.6
 11
-1.18999
 21
-14.6
  0
LINE
  8
0
 10
-1.18999
 20
-14.6
 11
-1.18999
 21
-14.5
  0
LINE
  8
0
 10
-1.18999
 20
-14.5
 11
-0.649994
 21
-14.5
  0
LINE
  8
0
 10
-0.649994
 20
-14.5
 11
-0.649994
 21
-14.6
  0
LINE
  8
0
 10
-0.649994
 20
-14.6
 11
0.019989
 21
-14.6
  0
LINE
  8
0
 10
0.019989
 20
-14.6
 11
0.019989
 21
-15.97
  0
LINE
  8
0
 10
0.019989
 20
-15.97
 11
0.184998
 21
-16.3
  0
LINE
  8
0
 10
0.184998
 20
-16.3
 11
0.514999
 21
-16.3
  0
LINE
  8
0
 10
0.514999
 20
-16.3
 11
0.679993
 21
-15.97
  0
LINE
  8
0
 10
0.679993
 20
-15.97
 11
0.679993
 21
-14.6
  0
LINE
  8
0
 10
0.679993
 20
-14.6
 11
1.35001
 21
-14.6
  0
LINE
  8
0
 10
1.35001
 20
-14.6
 11
1.35001
 21
-14.5
  0
LINE
  8
0
 10
1.35001
 20
-14.5
 11
1.89001
 21
-14.5
  0
LINE
  8
0
 10
1.89001
 20
-14.5
 11
1.89001
 21
-14.6
  0
LINE
  8
0
 10
1.89001
 20
-14.6
 11
2.56
 21
-14.6
  0
LINE
  8
0
 10
2.56
 20
-14.6
 11
2.56
 21
-15.97
  0
LINE
  8
0
 10
2.56
 20
-15.97
 11
2.72499
 21
-16.3
  0
LINE
  8
0
 10
2.72499
 20
-16.3
 11
3.05499
 21
-16.3
  0
LINE
  8
0
 10
3.05499
 20
-16.3
 11
3.21999
 21
-15.97
  0
LINE
  8
0
 10
3.21999
 20
-15.97
 11
3.21999
 21
-14.6
  0
LINE
  8
0
 10
3.21999
 20
-14.6
 11
3.89001
 21
-14.6
  0
LINE
  8
0
 10
3.89001
 20
-14.6
 11
3.89001
 21
-14.5
  0
LINE
  8
0
 10
3.89001
 20
-14.5
 11
4.42999
 21
-14.5
  0
LINE
  8
0
 10
4.42999
 20
-14.5
 11
4.42999
 21
-14.6
  0
LINE
  8
0
 10
4.42999
 20
-14.6
 11
5.09999
 21
-14.6
  0
LINE
  8
0
 10
5.09999
 20
-14.6
 11
5.09999
 21
-15.97
  0
LINE
  8
0
 10
5.09999
 20
-15.97
 11
5.265
 21
-16.3
  0
LINE
  8
0
 10
5.265
 20
-16.3
 11
5.59499
 21
-16.3
  0
LINE
  8
0
 10
5.59499
 20
-16.3
 11
5.75999
 21
-15.97
  0
LINE
  8
0
 10
5.75999
 20
-15.97
 11
5.75999
 21
-14.6
  0
LINE
  8
0
 10
5.75999
 20
-14.6
 11
6.42999
 21
-14.6
  0
LINE
  8
0
 10
6.42999
 20
-14.6
 11
6.42999
 21
-14.5
  0
LINE
  8
0
 10
6.42999
 20
-14.5
 11
6.96999
 21
-14.5
  0
LINE
  8
0
 10
6.96999
 20
-14.5
 11
6.96999
 21
-14.6
  0
LINE
  8
0
 10
6.96999
 20
-14.6
 11
7.64
 21
-14.6
  0
LINE
  8
0
 10
7.64
 20
-14.6
 11
7.64
 21
-15.97
  0
LINE
  8
0
 10
7.64
 20
-15.97
 11
7.80499
 21
-16.3
  0
LINE
  8
0
 10
7.80499
 20
-16.3
 11
8.13499
 21
-16.3
  0
LINE
  8
0
 10
8.13499
 20
-16.3
 11
8.29999
 21
-15.97
  0
LINE
  8
0
 10
8.29999
 20
-15.97
 11
8.29999
 21
-14.6
  0
LINE
  8
0
 10
8.29999
 20
-14.6
 11
8.96999
 21
-14.6
  0
LINE
  8
0
 10
8.96999
 20
-14.6
 11
8.96999
 21
-14.5
  0
LINE
  8
0
 10
8.96999
 20
-14.5
 11
9.50999
 21
-14.5
  0
LINE
  8
0
 10
9.50999
 20
-14.5
 11
9.50999
 21
-14.6
  0
LINE
  8
0
 10
9.50999
 20
-14.6
 11
10.18
 21
-14.6
  0
LINE
  8
0
 10
10.18
 20
-14.6
 11
10.18
 21
-15.97
  0
LINE
  8
0
 10
10.18
 20
-15.97
 11
10.345
 21
-16.3
  0
LINE
  8
0
 10
10.345
 20
-16.3
 11
10.675
 21
-16.3
  0
LINE
  8
0
 10
10.675
 20
-16.3
 11
10.84
 21
-15.97
  0
LINE
  8
0
 10
10.84
 20
-15.97
 11
10.84
 21
-14.6
  0
LINE
  8
0
 10
10.84
 20
-14.6
 11
11.51
 21
-14.6
  0
LINE
  8
0
 10
11.51
 20
-14.6
 11
11.51
 21
-14.5
  0
LINE
  8
0
 10
11.51
 20
-14.5
 11
12.05
 21
-14.5
  0
LINE
  8
0
 10
12.05
 20
-14.5
 11
12.05
 21
-14.6
  0
LINE
  8
0
 10
12.05
 20
-14.6
 11
12.72
 21
-14.6
  0
LINE
  8
0
 10
12.72
 20
-14.6
 11
12.72
 21
-15.97
  0
LINE
  8
0
 10
12.72
 20
-15.97
 11
12.885
 21
-16.3
  0
LINE
  8
0
 10
12.885
 20
-16.3
 11
13.215
 21
-16.3
  0
LINE
  8
0
 10
13.215
 20
-16.3
 11
13.38
 21
-15.97
  0
LINE
  8
0
 10
13.38
 20
-15.97
 11
13.38
 21
-14.6
  0
LINE
  8
0
 10
13.38
 20
-14.6
 11
14.05
 21
-14.6
  0
LINE
  8
0
 10
14.05
 20
-14.6
 11
14.05
 21
-14.5
  0
LINE
  8
0
 10
14.05
 20
-14.5
 11
14.59
 21
-14.5
  0
LINE
  8
0
 10
14.59
 20
-14.5
 11
14.59
 21
-14.6
  0
LINE
  8
0
 10
14.59
 20
-14.6
 11
15.26
 21
-14.6
  0
LINE
  8
0
 10
15.26
 20
-14.6
 11
15.26
 21
-15.97
  0
LINE
  8
0
 10
15.26
 20
-15.97
 11
15.425
 21
-16.3
  0
LINE
  8
0
 10
15.425
 20
-16.3
 11
15.755
 21
-16.3
  0
LINE
  8
0
 10
15.755
 20
-16.3
 11
15.92
 21
-15.97
  0
LINE
  8
0
 10
15.92
 20
-15.97
 11
15.92
 21
-14.6
  0
LINE
  8
0
 10
15.92
 20
-14.6
 11
16.59
 21
-14.6
  0
LINE
  8
0
 10
16.59
 20
-14.6
 11
16.59
 21
-14.5
  0
LINE
  8
0
 10
16.59
 20
-14.5
 11
17.13
 21
-14.5
  0
LINE
  8
0
 10
17.13
 20
-14.5
 11
17.13
 21
-14.6
  0
LINE
  8
0
 10
17.13
 20
-14.6
 11
17.8
 21
-14.6
  0
LINE
  8
0
 10
17.8
 20
-14.6
 11
17.8
 21
-15.97
  0
LINE
  8
0
 10
17.8
 20
-15.97
 11
17.965
 21
-16.3
  0
LINE
  8
0
 10
17.965
 20
-16.3
 11
18.295
 21
-16.3
  0
LINE
  8
0
 10
18.295
 20
-16.3
 11
18.46
 21
-15.97
  0
LINE
  8
0
 10
18.46
 20
-15.97
 11
18.46
 21
-14.6
  0
LINE
  8
0
 10
18.46
 20
-14.6
 11
19.13
 21
-14.6
  0
LINE
  8
0
 10
19.13
 20
-14.6
 11
19.13
 21
-14.5
  0
LINE
  8
0
 10
19.13
 20
-14.5
 11
20
 21
-14.5
  0
LINE
  8
0
 10
20
 20
-14.5
 11
20
 21
-14.6
  0
LINE
  8
0
 10
20
 20
-14.6
 11
24.6
 21
-14.6
  0
LINE
  8
0
 10
24.6
 20
-14.6
 11
24.6
 21
-18
  0
LINE
  8
0
 10
24.6
 20
-18
 11
-40.6
 21
-18
  0
LINE
  8
0
 10
9.5
 20
-10.56
 11
9.5
 21
-8.59999
  0
LINE
  8
0
 10
9.5
 20
-8.59999
 11
10.18
 21
-8.59999
  0
LINE
  8
0
 10
10.18
 20
-8.59999
 11
10.18
 21
-10.56
  0
LINE
  8
0
 10
10.18
 20
-10.56
 11
9.5
 21
-10.56
  0
LINE
  8
0
 10
-20.3
 20
-6
 11
-20.3
 21
-10.56
  0
LINE
  8
0
 10
-20.3
 20
-10.56
 11
-22.18
 21
-10.56
  0
LINE
  8
0
 10
-22.18
 20
-10.56
 11
-22.18
 21
-6
  0
LINE
  8
0
 10
-22.18
 20
-6
 11
-20.3
 21
-6
  0
ENDSEC
  0
SECTION
  2
OBJECTS
  0
DICTIONARY
  0
ENDSEC
  0
EOF
